<svg xmlns="http://www.w3.org/2000/svg" viewBox="0 0 24 24" fill="#0078D7" width="100" height="100">
  <path d="M4.6 13.9c-.3-.2-.5-.5-.6-.9-.2-.4-.2-.8-.2-1.2 0-.4.1-.8.2-1.2.2-.4.4-.7.7-.9l.1-.1c.3-.2.7-.3 1.1-.3.4 0 .8.1 1.2.3.4.2.7.4.9.7l.1.1c.2.3.3.7.3 1.1 0 .4-.1.8-.3 1.2-.2.4-.4.7-.7.9-.3.2-.7.3-1.1.3-.4 0-.8-.1-1.2-.3zm15.6-.2c-.3.2-.7.3-1.1.3-.4 0-.8-.1-1.2-.3-.4-.2-.7-.4-.9-.7-.2-.3-.3-.7-.3-1.1 0-.4.1-.8.3-1.2.2-.4.4-.7.7-.9.3-.2.7-.3 1.1-.3.4 0 .8.1 1.2.3.4.2.7.4.9.7l.1.1c.2.3.3.7.3 1.1 0 .4-.1.8-.3 1.2-.2.4-.4.8-.6 1-.1 0-.1 0-.2-.2zM12 2C6.5 2 2 6.5 2 12s4.5 10 10 10 10-4.5 10-10S17.5 2 12 2zm0 18c-4.4 0-8-3.6-8-8s3.6-8 8-8 8 3.6 8 8-3.6 8-8 8z"/>
  <text x="50%" y="50%" text-anchor="middle" dy=".3em" font-size="2" fill="white">DevOps</text>
</svg>
